<svg xmlns="http://www.w3.org/2000/svg" xmlns:xlink="http://www.w3.org/1999/xlink" width="500" zoomAndPan="magnify" viewBox="0 0 375 374.999991" height="500" preserveAspectRatio="xMidYMid meet" version="1.0"><defs><clipPath id="5ecee766d4"><path d="M 75.058594 75.058594 L 300 75.058594 L 300 300 L 75.058594 300 Z M 75.058594 75.058594 " clip-rule="nonzero"/></clipPath></defs><rect x="-37.5" width="450" fill="#ffffff" y="-37.499999" height="449.999989" fill-opacity="1"/><rect x="-37.5" width="450" fill="#a855f7" y="-37.499999" height="449.999989" fill-opacity="1"/><g clip-path="url(#5ecee766d4)"><path fill="#ffffff" d="M 116.832031 99.519531 L 130.207031 75.058594 L 143.578125 99.519531 L 168.042969 112.894531 L 143.578125 126.265625 L 130.207031 150.753906 L 116.832031 126.265625 L 92.367188 112.894531 Z M 243.890625 254.734375 L 233.964844 272.914062 L 224.0625 254.734375 L 205.902344 244.808594 L 224.039062 234.878906 L 233.964844 216.699219 L 243.890625 234.878906 L 262.074219 244.808594 Z M 281.773438 198.515625 L 271.847656 216.675781 L 261.921875 198.515625 L 243.738281 188.566406 L 261.898438 178.640625 L 271.824219 160.480469 L 281.75 178.621094 L 299.933594 188.546875 Z M 243.496094 131.515625 C 238.488281 126.507812 231.703125 123.699219 224.613281 123.675781 C 217.539062 123.675781 210.753906 126.488281 205.746094 131.492188 L 83.191406 254.050781 C 76.292969 260.773438 73.484375 270.675781 75.921875 280.007812 C 78.359375 289.339844 85.648438 296.632812 94.980469 299.070312 C 104.316406 301.507812 114.242188 298.738281 120.917969 291.800781 L 243.496094 169.222656 C 248.503906 164.214844 251.316406 157.429688 251.316406 150.355469 C 251.316406 143.308594 248.503906 136.523438 243.496094 131.515625 Z M 233.375 160.414062 L 193.320312 200.46875 C 192.132812 196.121094 189.847656 191.992188 186.421875 188.609375 C 182.996094 185.164062 178.890625 182.878906 174.542969 181.714844 L 214.621094 141.640625 C 217.957031 138.277344 222.855469 136.960938 227.445312 138.191406 C 232.011719 139.421875 235.589844 143.023438 236.820312 147.589844 C 238.050781 152.179688 236.710938 157.078125 233.375 160.414062 Z M 233.375 160.414062 " fill-opacity="1" fill-rule="nonzero"/></g></svg>